{
	"accessors":[{
		"bufferView":0,
		"type":"SCALAR",
		"componentType":5123,
		"count":1272,
		"byteOffset":0,
		"min":[0],
		"max":[455]
	},
	{
		"bufferView":1,
		"type":"VEC3",
		"componentType":5126,
		"count":456,
		"byteOffset":0,
		"min":[18.359375,
		0.0,
		-20.0],
		"max":[118.75,
		140.0390625,
		0.0]
	},
	{
		"bufferView":1,
		"type":"VEC3",
		"componentType":5126,
		"count":456,
		"byteOffset":12,
		"min":[-1.0,
		-1.0,
		-1.0],
		"max":[1.0,
		1.0,
		1.0]
	},
	{
		"bufferView":1,
		"type":"VEC2",
		"componentType":5126,
		"count":456,
		"byteOffset":24,
		"min":[0.0,
		0.0],
		"max":[1.0,
		1.0]
	},
	{
		"bufferView":2,
		"type":"SCALAR",
		"componentType":5123,
		"count":1452,
		"byteOffset":0,
		"min":[0],
		"max":[497]
	},
	{
		"bufferView":3,
		"type":"VEC3",
		"componentType":5126,
		"count":498,
		"byteOffset":0,
		"min":[9.375,
		-2.34375,
		-20.0],
		"max":[96.58203125,
		102.34375,
		0.0]
	},
	{
		"bufferView":3,
		"type":"VEC3",
		"componentType":5126,
		"count":498,
		"byteOffset":12,
		"min":[-0.9999334812164307,
		-1.0,
		-1.0],
		"max":[1.0,
		1.0,
		1.0]
	},
	{
		"bufferView":3,
		"type":"VEC2",
		"componentType":5126,
		"count":498,
		"byteOffset":24,
		"min":[0.0,
		0.0],
		"max":[1.0,
		1.0]
	},
	{
		"bufferView":4,
		"type":"SCALAR",
		"componentType":5123,
		"count":1764,
		"byteOffset":0,
		"min":[0],
		"max":[611]
	},
	{
		"bufferView":5,
		"type":"VEC3",
		"componentType":5126,
		"count":612,
		"byteOffset":0,
		"min":[8.7890625,
		-2.34375,
		-20.0],
		"max":[87.79296875,
		102.34375,
		0.0]
	},
	{
		"bufferView":5,
		"type":"VEC3",
		"componentType":5126,
		"count":612,
		"byteOffset":12,
		"min":[-1.0,
		-1.0,
		-1.0],
		"max":[1.0,
		0.9999984502792358,
		1.0]
	},
	{
		"bufferView":5,
		"type":"VEC2",
		"componentType":5126,
		"count":612,
		"byteOffset":24,
		"min":[0.0,
		0.0],
		"max":[1.0,
		1.0]
	},
	{
		"bufferView":6,
		"type":"SCALAR",
		"componentType":5123,
		"count":36,
		"byteOffset":0,
		"min":[0],
		"max":[23]
	},
	{
		"bufferView":7,
		"type":"VEC3",
		"componentType":5126,
		"count":24,
		"byteOffset":0,
		"min":[16.2109375,
		0.0,
		-20.0],
		"max":[32.2265625,
		148.046875,
		0.0]
	},
	{
		"bufferView":7,
		"type":"VEC3",
		"componentType":5126,
		"count":24,
		"byteOffset":12,
		"min":[-1.0,
		-1.0,
		-1.0],
		"max":[1.0,
		1.0,
		1.0]
	},
	{
		"bufferView":7,
		"type":"VEC2",
		"componentType":5126,
		"count":24,
		"byteOffset":24,
		"min":[0.0,
		0.0],
		"max":[1.0,
		1.0]
	},
	{
		"bufferView":8,
		"type":"SCALAR",
		"componentType":5123,
		"count":888,
		"byteOffset":0,
		"min":[0],
		"max":[313]
	},
	{
		"bufferView":9,
		"type":"VEC3",
		"componentType":5126,
		"count":314,
		"byteOffset":0,
		"min":[14.0625,
		0.0,
		-20.0],
		"max":[34.9609375,
		146.19140625,
		0.0]
	},
	{
		"bufferView":9,
		"type":"VEC3",
		"componentType":5126,
		"count":314,
		"byteOffset":12,
		"min":[-1.0,
		-1.0,
		-1.0],
		"max":[1.0,
		1.0,
		1.0]
	},
	{
		"bufferView":9,
		"type":"VEC2",
		"componentType":5126,
		"count":314,
		"byteOffset":24,
		"min":[0.0,
		0.0],
		"max":[1.0,
		1.0]
	},
	{
		"bufferView":10,
		"type":"SCALAR",
		"componentType":5123,
		"count":1656,
		"byteOffset":0,
		"min":[0],
		"max":[571]
	},
	{
		"bufferView":11,
		"type":"VEC3",
		"componentType":5126,
		"count":572,
		"byteOffset":0,
		"min":[9.375,
		-2.34375,
		-20.0],
		"max":[101.5625,
		148.046875,
		0.0]
	},
	{
		"bufferView":11,
		"type":"VEC3",
		"componentType":5126,
		"count":572,
		"byteOffset":12,
		"min":[-1.0,
		-1.0,
		-1.0],
		"max":[1.0,
		1.0,
		1.0]
	},
	{
		"bufferView":11,
		"type":"VEC2",
		"componentType":5126,
		"count":572,
		"byteOffset":24,
		"min":[0.0,
		0.0],
		"max":[1.0,
		1.0]
	},
	{
		"bufferView":12,
		"type":"SCALAR",
		"componentType":5123,
		"count":1764,
		"byteOffset":0,
		"min":[0],
		"max":[611]
	},
	{
		"bufferView":13,
		"type":"VEC3",
		"componentType":5126,
		"count":612,
		"byteOffset":0,
		"min":[8.7890625,
		-2.34375,
		-20.0],
		"max":[87.79296875,
		102.34375,
		0.0]
	},
	{
		"bufferView":13,
		"type":"VEC3",
		"componentType":5126,
		"count":612,
		"byteOffset":12,
		"min":[-1.0,
		-1.0,
		-1.0],
		"max":[1.0,
		0.9999984502792358,
		1.0]
	},
	{
		"bufferView":13,
		"type":"VEC2",
		"componentType":5126,
		"count":612,
		"byteOffset":24,
		"min":[0.0,
		0.0],
		"max":[1.0,
		1.0]
	},
	{
		"bufferView":14,
		"type":"SCALAR",
		"componentType":5123,
		"count":588,
		"byteOffset":0,
		"min":[0],
		"max":[217]
	},
	{
		"bufferView":15,
		"type":"VEC3",
		"componentType":5126,
		"count":218,
		"byteOffset":0,
		"min":[16.2109375,
		0.0,
		-20.0],
		"max":[68.359375,
		101.7578125,
		0.0]
	},
	{
		"bufferView":15,
		"type":"VEC3",
		"componentType":5126,
		"count":218,
		"byteOffset":12,
		"min":[-1.0,
		-1.0,
		-1.0],
		"max":[1.0,
		1.0,
		1.0]
	},
	{
		"bufferView":15,
		"type":"VEC2",
		"componentType":5126,
		"count":218,
		"byteOffset":24,
		"min":[0.0,
		0.0],
		"max":[1.0,
		1.0]
	}],
	"asset":{
		"version":"2.0",
		"generator":"Created using the official Cinema 4D glTF Exporter 1.000x284978"
	},
	"scenes":[{
		"nodes":[0]
	}],
	"nodes":[{
		"name":"Text",
		"translation":[-344.74481201171877,
		0.0,
		0.0],
		"rotation":[0.0,
		0.0,
		0.0,
		-1.0],
		"scale":[1.0,
		1.0,
		1.0],
		"children":[1]
	},
	{
		"name":"1",
		"children":[2]
	},
	{
		"name":"Realidar",
		"children":[3,
		4,
		5,
		6,
		7,
		8,
		9,
		10]
	},
	{
		"name":"R",
		"mesh":0
	},
	{
		"name":"e",
		"translation":[114.0625,
		0.0,
		0.0],
		"rotation":[0.0,
		0.0,
		0.0,
		-1.0],
		"scale":[1.0,
		1.0,
		1.0],
		"mesh":1
	},
	{
		"name":"a",
		"translation":[218.65234375,
		0.0,
		0.0],
		"rotation":[0.0,
		0.0,
		0.0,
		-1.0],
		"scale":[1.0,
		1.0,
		1.0],
		"mesh":2
	},
	{
		"name":"l",
		"translation":[320.41015625,
		0.0,
		0.0],
		"rotation":[0.0,
		0.0,
		0.0,
		-1.0],
		"scale":[1.0,
		1.0,
		1.0],
		"mesh":3
	},
	{
		"name":"i",
		"translation":[368.84765625,
		0.0,
		0.0],
		"rotation":[0.0,
		0.0,
		0.0,
		-1.0],
		"scale":[1.0,
		1.0,
		1.0],
		"mesh":4
	},
	{
		"name":"d",
		"translation":[417.28515625,
		0.0,
		0.0],
		"rotation":[0.0,
		0.0,
		0.0,
		-1.0],
		"scale":[1.0,
		1.0,
		1.0],
		"mesh":5
	},
	{
		"name":"a",
		"translation":[535.05859375,
		0.0,
		0.0],
		"rotation":[0.0,
		0.0,
		0.0,
		-1.0],
		"scale":[1.0,
		1.0,
		1.0],
		"mesh":6
	},
	{
		"name":"r",
		"translation":[636.81640625,
		0.0,
		0.0],
		"rotation":[0.0,
		0.0,
		0.0,
		-1.0],
		"scale":[1.0,
		1.0,
		1.0],
		"mesh":7
	}],
	"meshes":[{
		"name":"R",
		"primitives":[{
			"attributes":{
				"POSITION":1,
				"NORMAL":2,
				"TEXCOORD_0":3
			},
			"indices":0
		}]
	},
	{
		"name":"e",
		"primitives":[{
			"attributes":{
				"POSITION":5,
				"NORMAL":6,
				"TEXCOORD_0":7
			},
			"indices":4
		}]
	},
	{
		"name":"a",
		"primitives":[{
			"attributes":{
				"POSITION":9,
				"NORMAL":10,
				"TEXCOORD_0":11
			},
			"indices":8
		}]
	},
	{
		"name":"l",
		"primitives":[{
			"attributes":{
				"POSITION":13,
				"NORMAL":14,
				"TEXCOORD_0":15
			},
			"indices":12
		}]
	},
	{
		"name":"i",
		"primitives":[{
			"attributes":{
				"POSITION":17,
				"NORMAL":18,
				"TEXCOORD_0":19
			},
			"indices":16
		}]
	},
	{
		"name":"d",
		"primitives":[{
			"attributes":{
				"POSITION":21,
				"NORMAL":22,
				"TEXCOORD_0":23
			},
			"indices":20
		}]
	},
	{
		"name":"a",
		"primitives":[{
			"attributes":{
				"POSITION":25,
				"NORMAL":26,
				"TEXCOORD_0":27
			},
			"indices":24
		}]
	},
	{
		"name":"r",
		"primitives":[{
			"attributes":{
				"POSITION":29,
				"NORMAL":30,
				"TEXCOORD_0":31
			},
			"indices":28
		}]
	}],
	"bufferViews":[{
		"buffer":0,
		"byteOffset":0,
		"byteLength":2544,
		"target":34963
	},
	{
		"buffer":0,
		"byteOffset":2544,
		"byteLength":14592,
		"target":34962,
		"byteStride":32
	},
	{
		"buffer":1,
		"byteOffset":0,
		"byteLength":2904,
		"target":34963
	},
	{
		"buffer":1,
		"byteOffset":2904,
		"byteLength":15936,
		"target":34962,
		"byteStride":32
	},
	{
		"buffer":2,
		"byteOffset":0,
		"byteLength":3528,
		"target":34963
	},
	{
		"buffer":2,
		"byteOffset":3528,
		"byteLength":19584,
		"target":34962,
		"byteStride":32
	},
	{
		"buffer":3,
		"byteOffset":0,
		"byteLength":72,
		"target":34963
	},
	{
		"buffer":3,
		"byteOffset":72,
		"byteLength":768,
		"target":34962,
		"byteStride":32
	},
	{
		"buffer":4,
		"byteOffset":0,
		"byteLength":1776,
		"target":34963
	},
	{
		"buffer":4,
		"byteOffset":1776,
		"byteLength":10048,
		"target":34962,
		"byteStride":32
	},
	{
		"buffer":5,
		"byteOffset":0,
		"byteLength":3312,
		"target":34963
	},
	{
		"buffer":5,
		"byteOffset":3312,
		"byteLength":18304,
		"target":34962,
		"byteStride":32
	},
	{
		"buffer":6,
		"byteOffset":0,
		"byteLength":3528,
		"target":34963
	},
	{
		"buffer":6,
		"byteOffset":3528,
		"byteLength":19584,
		"target":34962,
		"byteStride":32
	},
	{
		"buffer":7,
		"byteOffset":0,
		"byteLength":1176,
		"target":34963
	},
	{
		"buffer":7,
		"byteOffset":1176,
		"byteLength":6976,
		"target":34962,
		"byteStride":32
	}],
	"buffers":[{
		"uri":"data:application/octet-stream;base64,",
		"byteLength":17136
	},
	{
		"uri":"data:application/octet-stream;base64,",
		"byteLength":18840
	},
	{
		"uri":"data:application/octet-stream;base64,",
		"byteLength":23112
	},
	{
		"uri":"data:application/octet-stream;base64,",
		"byteLength":840
	},
	{
		"uri":"data:application/octet-stream;base64,",
		"byteLength":11824
	},
	{
		"uri":"data:application/octet-stream;base64,",
		"byteLength":21616
	},
	{
		"uri":"data:application/octet-stream;base64,",
		"byteLength":23112
	},
	{
		"uri":"data:application/octet-stream;base64,",
		"byteLength":8152
	}]
}